PathFileType	4	(X/Y/Z)	Walk6.trc
DataRate	CameraRate	NumFrames	NumMarkers	Units	OrigDataRate	OrigDataStartFrame	OrigNumFrames
200.000000	200.000000	4	59	mm	200.000000	304	500
Frame#	Times		LFHD		LBHD		C7		T10		RBack		LPSI		RPSI		RElbowM		RCAR		LUA1		LElbowM		LLFC		LCAR		RUA1		RFA1		RWRR		CLAV		LACR1		RTH3		RTB1		LWRU		RBHD		RACR1		RTB4		LFA1		LWRR		RTH2		RTB3		RToe		RElbow		RMT1		STRN		RWRU		RFHD		RTH4		RLFC		RCAL		RMT5		RTH1		RTB2		LTH3		LTH4		RMMAL		LTH1		LElbow		LTH2		LTB3		RLMAL		LTB2		RASI		LCAL		LMT1		LASI		LLMAL		LMT5		LToe		LTB1		LMMAL		LTB4
			X1	Y1	Z1	X2	Y2	Z2	X3	Y3	Z3	X4	Y4	Z4	X5	Y5	Z5	X6	Y6	Z6	X7	Y7	Z7	X8	Y8	Z8	X9	Y9	Z9	X10	Y10	Z10	X11	Y11	Z11	X12	Y12	Z12	X13	Y13	Z13	X14	Y14	Z14	X15	Y15	Z15	X16	Y16	Z16	X17	Y17	Z17	X18	Y18	Z18	X19	Y19	Z19	X20	Y20	Z20	X21	Y21	Z21	X22	Y22	Z22	X23	Y23	Z23	X24	Y24	Z24	X25	Y25	Z25	X26	Y26	Z26	X27	Y27	Z27	X28	Y28	Z28	X29	Y29	Z29	X30	Y30	Z30	X31	Y31	Z31	X32	Y32	Z32	X33	Y33	Z33	X34	Y34	Z34	X35	Y35	Z35	X36	Y36	Z36	X37	Y37	Z37	X38	Y38	Z38	X39	Y39	Z39	X40	Y40	Z40	X41	Y41	Z41	X42	Y42	Z42	X43	Y43	Z43	X44	Y44	Z44	X45	Y45	Z45	X46	Y46	Z46	X47	Y47	Z47	X48	Y48	Z48	X49	Y49	Z49	X50	Y50	Z50	X51	Y51	Z51	X52	Y52	Z52	X53	Y53	Z53	X54	Y54	Z54	X55	Y55	Z55	X56	Y56	Z56	X57	Y57	Z57	X58	Y58	Z58	X59	Y59	Z59

304	1.52	92.118	1466.2	-29.259	-80.409	1471.6	-50.246	-112.02	1334.7	14.203	-133.04	1063.1	9.1209	-144.77	1229.2	136.04	-164.2	888.1	-9.4439	-154.01	879.65	88.589	-135.18	940.59	201.31	-53.478	715.8	336.92	-7.0657	1102.3	-233.09	-62.691	944.66	-201.04	-124.21	439.07	-124.22	141.86	736.65	-278.81	-66.749	1117.5	250.9	-111.82	850.76	297.54	-15.76	750.53	296.47	14.364	1257.1	24.652	-24.735	1272.3	-147.12	88.112	537.95	165.61	180.29	337.26	56.744	87.049	763.41	-302.33	-80.581	1477.8	73.106	-49.481	1269.8	170.74	190.72	245.98	59.055	23.391	871.98	-287.52	111.91	767.9	-235.65	124.16	657.32	160.52	212.19	154.55	54.769	351.46	36.347	40.854	-106.23	977.96	284.22	292.48	56.034	35.488	79.68	1154.9	23.487	-90.094	737.98	290.55	99.074	1474.2	46.994	60.422	626.24	192.14	136.09	452.4	144.81	141.7	35.879	84.129	278.55	38.287	88.706	36.908	708.34	218.96	176.14	241.58	128.96	-68.837	538.51	-133.96	-49.615	629.67	-154.05	192.62	72.587	23.645	-37.341	720.84	-177.41	-31.276	985.85	-261.53	15.642	629.4	-121.2	-262.19	179.67	-19.922	198.58	64.831	102.69	-239.34	268.59	-95.286	77.008	846.8	153.76	-412.04	127.7	-2.9144	-278.3	55.946	-1.8333	113.03	874.25	-148.97	-362.85	127.19	-51.75	-311.64	47	-54.176	-243.41	25.197	-8.4688	-146.8	319.67	-43.122	-336.7	123.63	24.022	-211.94	255.38	-31.429
305	1.525	98.247	1467.2	-28.733	-74.284	1472.6	-49.567	-105.89	1335.7	15.036	-126.87	1064.1	9.9441	-138.3	1230.2	137.06	-157.77	888.41	-9.4151	-147.61	880.51	88.784	-127.82	941.51	201.59	-46.265	716.38	336.92	-1.4276	1103.2	-232.27	-57.041	945.82	-199.65	-114.94	439.25	-125.46	145.64	736.65	-278.99	-59.314	1118.2	251.43	-104.45	851.51	297.77	-8.6394	751.16	296.56	20.488	1258.2	25.279	-18.791	1273.4	-146.4	93.005	538.68	166.11	184.14	337.2	56.757	90.858	763.75	-302.17	-74.363	1478.8	73.78	-42.993	1270.9	171.53	193.46	245.81	59.094	27.956	872.71	-286.86	116.14	768	-235.66	130.2	657.68	160.48	213.93	154.12	54.771	351.88	34.086	40.508	-98.577	978.66	284.57	293.08	54.574	35.371	85.947	1156.1	24.09	-82.987	738.69	290.72	105.27	1475.2	47.521	66.307	627.32	192.55	141.37	452.99	145.04	142.06	36.202	84.287	278.99	37.081	88.722	43.781	709.72	219.28	179.35	241.63	129.12	-60.233	539.01	-134.98	-41.748	630.36	-154.55	193.36	72.425	23.757	-30.269	721.81	-177.42	-25.949	986.79	-260.46	23.569	630.46	-121.95	-256.26	181.81	-21.223	199.34	64.56	102.79	-232.47	270.66	-96.388	83.238	848	154.31	-406.44	133.58	-3.3555	-276.21	56.508	-1.9444	115.06	873.83	-148.37	-358.03	131.32	-52.452	-309.56	48.551	-54.301	-243.56	25.182	-8.2272	-138.63	319.87	-44.811	-331.47	127.09	22.979	-204.76	256.68	-32.839
306	1.53	104.37	1468.2	-28.21	-68.165	1473.7	-48.895	-99.795	1336.8	15.861	-120.73	1065.2	10.777	-131.84	1231.3	138.09	-151.36	888.73	-9.4398	-141.24	881.42	88.935	-120.41	942.55	201.88	-38.924	717.08	336.91	4.1789	1104.3	-231.45	-51.418	947.09	-198.22	-105.38	439.42	-126.74	149.31	736.69	-279.15	-51.829	1119.1	251.96	-97.017	852.39	298.01	-1.4571	751.93	296.61	26.582	1259.4	25.894	-12.869	1274.5	-145.69	97.813	539.43	166.63	187.81	337.14	56.833	94.574	764.17	-301.98	-68.155	1479.9	74.447	-36.506	1272.1	172.3	196.04	245.64	59.189	32.459	873.52	-286.19	120.26	768.17	-235.63	136.11	658.09	160.55	215.54	153.72	54.806	352.22	32.127	40.187	-90.864	979.49	284.93	293.57	53.314	35.282	92.18	1157.4	24.678	-75.783	739.53	290.9	111.46	1476.2	48.05	72.036	628.4	192.98	146.58	453.58	145.25	142.37	36.489	84.453	279.35	36.066	88.781	50.452	711.08	219.62	182.38	241.67	129.33	-51.434	539.54	-136.03	-33.76	631.11	-155.06	193.99	72.321	23.889	-23.141	722.82	-177.44	-20.653	987.82	-259.38	31.604	631.61	-122.72	-249.97	183.99	-22.592	200.02	64.333	102.9	-225.27	272.79	-97.529	89.398	849.27	154.88	-400.43	139.56	-3.8427	-273.92	57.189	-2.0867	116.87	873.41	-147.75	-352.83	135.56	-53.177	-307.24	50.28	-54.482	-243.61	25.205	-8.0415	-130.15	320.07	-46.577	-325.87	130.61	21.914	-197.25	258	-34.308
307	1.535	110.48	1469.2	-27.689	-62.058	1474.8	-48.232	-93.728	1338	16.676	-114.61	1066.3	11.614	-125.39	1232.5	139.11	-144.97	889.04	-9.5098	-134.92	882.39	89.047	-112.95	943.69	202.17	-31.454	717.91	336.89	9.7526	1105.4	-230.63	-45.827	948.45	-196.77	-95.565	439.59	-128.04	152.86	736.77	-279.28	-44.306	1120.1	252.48	-89.51	853.37	298.26	5.792	752.83	296.62	32.645	1260.6	26.497	-6.9744	1275.7	-144.97	102.57	540.21	167.15	191.32	337.07	56.978	98.207	764.67	-301.78	-61.961	1481	75.105	-30.025	1273.4	173.05	198.46	245.49	59.338	36.905	874.42	-285.49	124.28	768.4	-235.58	141.87	658.55	160.7	217.03	153.36	54.87	352.47	30.453	39.887	-83.106	980.43	285.3	293.96	52.239	35.216	98.376	1158.7	25.252	-68.479	740.49	291.1	117.64	1477.2	48.581	77.616	629.47	193.41	151.68	454.15	145.45	142.64	36.741	84.621	279.63	35.229	88.877	56.904	712.42	219.98	185.2	241.69	129.59	-42.458	540.1	-137.08	-25.668	631.89	-155.59	194.54	72.266	24.036	-15.97	723.86	-177.49	-15.392	988.94	-258.3	39.734	632.85	-123.49	-243.32	186.21	-24.016	200.62	64.143	103.03	-217.75	274.97	-98.7	95.492	850.59	155.48	-394	145.6	-4.3709	-271.41	58.017	-2.2774	118.49	872.97	-147.09	-347.25	139.88	-53.919	-304.68	52.205	-54.732	-243.5	25.279	-7.9399	-121.36	320.29	-48.404	-319.92	134.2	20.835	-189.4	259.35	-35.825
